<mxfile host="app.diagrams.net" agent="Mozilla/5.0 (Macintosh; Intel Mac OS X 10_15_7) AppleWebKit/537.36 (KHTML, like Gecko) Chrome/128.0.0.0 Safari/537.36" version="24.7.16">
  <diagram name="Page-1" id="HBcbqP00_InRanWW-A8C">
    <mxGraphModel grid="1" page="1" gridSize="10" guides="1" tooltips="1" connect="1" arrows="1" fold="1" pageScale="1" pageWidth="850" pageHeight="1100" math="0" shadow="0">
      <root>
        <mxCell id="0" />
        <mxCell id="1" parent="0" />
        <mxCell id="MBz1_4apHjAdOrtd2bCv-1" value="User" style="shape=umlActor;verticalLabelPosition=bottom;verticalAlign=top;html=1;outlineConnect=0;" vertex="1" parent="1">
          <mxGeometry x="110" y="200" width="30" height="60" as="geometry" />
        </mxCell>
        <mxCell id="MBz1_4apHjAdOrtd2bCv-27" style="edgeStyle=orthogonalEdgeStyle;rounded=0;orthogonalLoop=1;jettySize=auto;html=1;entryX=0.5;entryY=1;entryDx=0;entryDy=0;endArrow=none;endFill=0;dashed=1;" edge="1" parent="1" source="MBz1_4apHjAdOrtd2bCv-2" target="MBz1_4apHjAdOrtd2bCv-11">
          <mxGeometry relative="1" as="geometry" />
        </mxCell>
        <mxCell id="MBz1_4apHjAdOrtd2bCv-54" value="includes" style="edgeLabel;html=1;align=center;verticalAlign=middle;resizable=0;points=[];" connectable="0" vertex="1" parent="MBz1_4apHjAdOrtd2bCv-27">
          <mxGeometry x="0.16" relative="1" as="geometry">
            <mxPoint as="offset" />
          </mxGeometry>
        </mxCell>
        <mxCell id="MBz1_4apHjAdOrtd2bCv-2" value="Title Screen" style="ellipse;whiteSpace=wrap;html=1;" vertex="1" parent="1">
          <mxGeometry x="310" y="200" width="120" height="80" as="geometry" />
        </mxCell>
        <mxCell id="MBz1_4apHjAdOrtd2bCv-40" style="edgeStyle=orthogonalEdgeStyle;rounded=0;orthogonalLoop=1;jettySize=auto;html=1;entryX=0.5;entryY=1;entryDx=0;entryDy=0;endArrow=none;endFill=0;" edge="1" parent="1" source="MBz1_4apHjAdOrtd2bCv-3" target="MBz1_4apHjAdOrtd2bCv-6">
          <mxGeometry relative="1" as="geometry" />
        </mxCell>
        <mxCell id="MBz1_4apHjAdOrtd2bCv-41" style="edgeStyle=orthogonalEdgeStyle;rounded=0;orthogonalLoop=1;jettySize=auto;html=1;entryX=0.5;entryY=0;entryDx=0;entryDy=0;endArrow=none;endFill=0;" edge="1" parent="1" source="MBz1_4apHjAdOrtd2bCv-3" target="MBz1_4apHjAdOrtd2bCv-4">
          <mxGeometry relative="1" as="geometry" />
        </mxCell>
        <mxCell id="MBz1_4apHjAdOrtd2bCv-3" value="Logic Gate Levels" style="ellipse;whiteSpace=wrap;html=1;" vertex="1" parent="1">
          <mxGeometry x="660" y="250" width="120" height="80" as="geometry" />
        </mxCell>
        <mxCell id="MBz1_4apHjAdOrtd2bCv-4" value="Binary levels" style="ellipse;whiteSpace=wrap;html=1;" vertex="1" parent="1">
          <mxGeometry x="660" y="390" width="120" height="80" as="geometry" />
        </mxCell>
        <mxCell id="MBz1_4apHjAdOrtd2bCv-5" value="Memory Management Levels" style="ellipse;whiteSpace=wrap;html=1;" vertex="1" parent="1">
          <mxGeometry x="820" y="100" width="120" height="80" as="geometry" />
        </mxCell>
        <mxCell id="MBz1_4apHjAdOrtd2bCv-42" style="edgeStyle=orthogonalEdgeStyle;rounded=0;orthogonalLoop=1;jettySize=auto;html=1;entryX=0.5;entryY=0;entryDx=0;entryDy=0;endArrow=none;endFill=0;" edge="1" parent="1" source="MBz1_4apHjAdOrtd2bCv-6" target="MBz1_4apHjAdOrtd2bCv-5">
          <mxGeometry relative="1" as="geometry">
            <Array as="points">
              <mxPoint x="810" y="100" />
              <mxPoint x="810" y="100" />
            </Array>
          </mxGeometry>
        </mxCell>
        <mxCell id="MBz1_4apHjAdOrtd2bCv-56" style="edgeStyle=orthogonalEdgeStyle;rounded=0;orthogonalLoop=1;jettySize=auto;html=1;entryX=0.5;entryY=1;entryDx=0;entryDy=0;endArrow=none;endFill=0;" edge="1" parent="1" source="MBz1_4apHjAdOrtd2bCv-6" target="MBz1_4apHjAdOrtd2bCv-8">
          <mxGeometry relative="1" as="geometry" />
        </mxCell>
        <mxCell id="MBz1_4apHjAdOrtd2bCv-57" style="edgeStyle=orthogonalEdgeStyle;rounded=0;orthogonalLoop=1;jettySize=auto;html=1;exitX=0.5;exitY=0;exitDx=0;exitDy=0;entryX=0.669;entryY=0.954;entryDx=0;entryDy=0;entryPerimeter=0;endArrow=none;endFill=0;" edge="1" parent="1" source="MBz1_4apHjAdOrtd2bCv-6" target="MBz1_4apHjAdOrtd2bCv-9">
          <mxGeometry relative="1" as="geometry">
            <Array as="points">
              <mxPoint x="720" y="20" />
              <mxPoint x="600" y="20" />
            </Array>
          </mxGeometry>
        </mxCell>
        <mxCell id="MBz1_4apHjAdOrtd2bCv-58" style="edgeStyle=orthogonalEdgeStyle;rounded=0;orthogonalLoop=1;jettySize=auto;html=1;entryX=0.5;entryY=1;entryDx=0;entryDy=0;endArrow=none;endFill=0;" edge="1" parent="1" source="MBz1_4apHjAdOrtd2bCv-6" target="MBz1_4apHjAdOrtd2bCv-7">
          <mxGeometry relative="1" as="geometry">
            <Array as="points">
              <mxPoint x="720" y="20" />
              <mxPoint x="860" y="20" />
            </Array>
          </mxGeometry>
        </mxCell>
        <mxCell id="MBz1_4apHjAdOrtd2bCv-6" value="Options Menu" style="ellipse;whiteSpace=wrap;html=1;" vertex="1" parent="1">
          <mxGeometry x="660" y="40" width="120" height="80" as="geometry" />
        </mxCell>
        <mxCell id="MBz1_4apHjAdOrtd2bCv-7" value="Continue" style="ellipse;whiteSpace=wrap;html=1;" vertex="1" parent="1">
          <mxGeometry x="800" y="-80" width="120" height="80" as="geometry" />
        </mxCell>
        <mxCell id="MBz1_4apHjAdOrtd2bCv-8" value="Toggle Sound" style="ellipse;whiteSpace=wrap;html=1;" vertex="1" parent="1">
          <mxGeometry x="660" y="-80" width="120" height="80" as="geometry" />
        </mxCell>
        <mxCell id="MBz1_4apHjAdOrtd2bCv-34" style="edgeStyle=orthogonalEdgeStyle;rounded=0;orthogonalLoop=1;jettySize=auto;html=1;entryX=0.5;entryY=0;entryDx=0;entryDy=0;endArrow=none;endFill=0;exitX=0.5;exitY=1;exitDx=0;exitDy=0;" edge="1" parent="1" source="MBz1_4apHjAdOrtd2bCv-9" target="MBz1_4apHjAdOrtd2bCv-14">
          <mxGeometry relative="1" as="geometry">
            <Array as="points">
              <mxPoint x="580" y="150" />
            </Array>
          </mxGeometry>
        </mxCell>
        <mxCell id="MBz1_4apHjAdOrtd2bCv-9" value="Save" style="ellipse;whiteSpace=wrap;html=1;" vertex="1" parent="1">
          <mxGeometry x="520" y="-80" width="120" height="80" as="geometry" />
        </mxCell>
        <mxCell id="MBz1_4apHjAdOrtd2bCv-10" value="Quit" style="ellipse;whiteSpace=wrap;html=1;" vertex="1" parent="1">
          <mxGeometry x="210" y="60" width="120" height="80" as="geometry" />
        </mxCell>
        <mxCell id="MBz1_4apHjAdOrtd2bCv-31" style="edgeStyle=orthogonalEdgeStyle;rounded=0;orthogonalLoop=1;jettySize=auto;html=1;entryX=0.5;entryY=1;entryDx=0;entryDy=0;endArrow=none;endFill=0;" edge="1" parent="1" source="MBz1_4apHjAdOrtd2bCv-11" target="MBz1_4apHjAdOrtd2bCv-13">
          <mxGeometry relative="1" as="geometry" />
        </mxCell>
        <mxCell id="MBz1_4apHjAdOrtd2bCv-11" value="Options" style="ellipse;whiteSpace=wrap;html=1;" vertex="1" parent="1">
          <mxGeometry x="310" y="-30" width="120" height="80" as="geometry" />
        </mxCell>
        <mxCell id="MBz1_4apHjAdOrtd2bCv-12" value="Play" style="ellipse;whiteSpace=wrap;html=1;" vertex="1" parent="1">
          <mxGeometry x="420" y="60" width="120" height="80" as="geometry" />
        </mxCell>
        <mxCell id="MBz1_4apHjAdOrtd2bCv-13" value="Options Menu" style="ellipse;whiteSpace=wrap;html=1;" vertex="1" parent="1">
          <mxGeometry x="310" y="-170" width="120" height="80" as="geometry" />
        </mxCell>
        <mxCell id="MBz1_4apHjAdOrtd2bCv-14" value="Character Data" style="ellipse;whiteSpace=wrap;html=1;" vertex="1" parent="1">
          <mxGeometry x="530" y="150" width="120" height="80" as="geometry" />
        </mxCell>
        <mxCell id="MBz1_4apHjAdOrtd2bCv-32" style="edgeStyle=orthogonalEdgeStyle;rounded=0;orthogonalLoop=1;jettySize=auto;html=1;entryX=0.5;entryY=0;entryDx=0;entryDy=0;endArrow=none;endFill=0;" edge="1" parent="1" source="MBz1_4apHjAdOrtd2bCv-15" target="MBz1_4apHjAdOrtd2bCv-13">
          <mxGeometry relative="1" as="geometry" />
        </mxCell>
        <mxCell id="MBz1_4apHjAdOrtd2bCv-15" value="Toggle Sound" style="ellipse;whiteSpace=wrap;html=1;" vertex="1" parent="1">
          <mxGeometry x="310" y="-290" width="120" height="80" as="geometry" />
        </mxCell>
        <mxCell id="MBz1_4apHjAdOrtd2bCv-25" style="edgeStyle=orthogonalEdgeStyle;rounded=0;orthogonalLoop=1;jettySize=auto;html=1;entryX=-0.008;entryY=0.375;entryDx=0;entryDy=0;entryPerimeter=0;endArrow=none;endFill=0;" edge="1" parent="1" source="MBz1_4apHjAdOrtd2bCv-1" target="MBz1_4apHjAdOrtd2bCv-2">
          <mxGeometry relative="1" as="geometry" />
        </mxCell>
        <mxCell id="MBz1_4apHjAdOrtd2bCv-28" style="edgeStyle=orthogonalEdgeStyle;rounded=0;orthogonalLoop=1;jettySize=auto;html=1;entryX=0.75;entryY=1;entryDx=0;entryDy=0;entryPerimeter=0;endArrow=none;endFill=0;" edge="1" parent="1" source="MBz1_4apHjAdOrtd2bCv-2" target="MBz1_4apHjAdOrtd2bCv-10">
          <mxGeometry relative="1" as="geometry" />
        </mxCell>
        <mxCell id="MBz1_4apHjAdOrtd2bCv-29" style="edgeStyle=orthogonalEdgeStyle;rounded=0;orthogonalLoop=1;jettySize=auto;html=1;entryX=0.308;entryY=1;entryDx=0;entryDy=0;entryPerimeter=0;endArrow=none;endFill=0;" edge="1" parent="1" source="MBz1_4apHjAdOrtd2bCv-2" target="MBz1_4apHjAdOrtd2bCv-12">
          <mxGeometry relative="1" as="geometry" />
        </mxCell>
        <mxCell id="MBz1_4apHjAdOrtd2bCv-33" style="edgeStyle=orthogonalEdgeStyle;rounded=0;orthogonalLoop=1;jettySize=auto;html=1;entryX=0;entryY=0.625;entryDx=0;entryDy=0;entryPerimeter=0;endArrow=none;endFill=0;" edge="1" parent="1" source="MBz1_4apHjAdOrtd2bCv-12" target="MBz1_4apHjAdOrtd2bCv-14">
          <mxGeometry relative="1" as="geometry" />
        </mxCell>
        <mxCell id="MBz1_4apHjAdOrtd2bCv-50" value="" style="endArrow=none;html=1;rounded=0;" edge="1" parent="1">
          <mxGeometry width="50" height="50" relative="1" as="geometry">
            <mxPoint x="200" y="480" as="sourcePoint" />
            <mxPoint x="200" y="-320" as="targetPoint" />
          </mxGeometry>
        </mxCell>
        <mxCell id="MBz1_4apHjAdOrtd2bCv-51" value="" style="endArrow=none;html=1;rounded=0;" edge="1" parent="1">
          <mxGeometry width="50" height="50" relative="1" as="geometry">
            <mxPoint x="960" y="480" as="sourcePoint" />
            <mxPoint x="960" y="-320" as="targetPoint" />
          </mxGeometry>
        </mxCell>
        <mxCell id="MBz1_4apHjAdOrtd2bCv-52" value="" style="endArrow=none;html=1;rounded=0;" edge="1" parent="1">
          <mxGeometry width="50" height="50" relative="1" as="geometry">
            <mxPoint x="200" y="-320" as="sourcePoint" />
            <mxPoint x="960" y="-320" as="targetPoint" />
          </mxGeometry>
        </mxCell>
        <mxCell id="MBz1_4apHjAdOrtd2bCv-53" value="" style="endArrow=none;html=1;rounded=0;" edge="1" parent="1">
          <mxGeometry width="50" height="50" relative="1" as="geometry">
            <mxPoint x="200" y="480" as="sourcePoint" />
            <mxPoint x="960" y="480" as="targetPoint" />
          </mxGeometry>
        </mxCell>
        <mxCell id="MBz1_4apHjAdOrtd2bCv-55" style="edgeStyle=orthogonalEdgeStyle;rounded=0;orthogonalLoop=1;jettySize=auto;html=1;entryX=0.224;entryY=0.065;entryDx=0;entryDy=0;entryPerimeter=0;endArrow=none;endFill=0;" edge="1" parent="1" source="MBz1_4apHjAdOrtd2bCv-14" target="MBz1_4apHjAdOrtd2bCv-3">
          <mxGeometry relative="1" as="geometry" />
        </mxCell>
      </root>
    </mxGraphModel>
  </diagram>
</mxfile>
